<?xml version="1.0" encoding="UTF-8"?>
<svg width="300" height="182.04" version="1.1" viewBox="0 0 300 182.04" xmlns="http://www.w3.org/2000/svg" xmlns:cc="http://creativecommons.org/ns#" xmlns:dc="http://purl.org/dc/elements/1.1/" xmlns:rdf="http://www.w3.org/1999/02/22-rdf-syntax-ns#">
 <metadata>
  <rdf:RDF>
   <cc:Work rdf:about="">
    <dc:format>image/svg+xml</dc:format>
    <dc:type rdf:resource="http://purl.org/dc/dcmitype/StillImage"/>
    <dc:title/>
   </cc:Work>
  </rdf:RDF>
 </metadata>
 <!-- Generator: Sketch 58 (84663) - https://sketch.com -->
 <desc>Created with Sketch.</desc>
 <g fill-rule="evenodd">
  <path d="m68.062 4.4493 2.967 2.9651 14.807 14.809 0.50905 0.50905h14.621l28.786 28.786v14.621l0.50905 0.50905 14.809 14.807 2.9652 2.967v-79.973zm57.19 16.711h6.0715v6.0733z"/>
  <path d="m151.96 4.4492v79.973l18.283-18.283v-21.194h21.195l0.50863-0.50906 17.774-17.774h-39.478v-3.9296h43.407l18.283-18.283z"/>
  <polygon transform="matrix(.95122 0 0 .95122 7.332 4.4493)" points="27.808 141.8 91.762 141.8 91.762 128.7 12.42 128.7 12.42 148.73 -4.5662e-5 148.73 12.42 161.15 12.42 182.02 27.808 182.02 27.808 161.15 53.924 161.15 66.483 148.74 27.808 148.74"/>
  <polygon transform="matrix(.95122 0 0 .95122 7.332 4.4493)" points="153.35 128.7 153.35 141.8 194.92 141.8 154.63 182.02 164.71 182.02 214.46 182.02 227.62 168.92 188.81 168.92 216.23 141.8 229.17 128.7"/>
  <polygon transform="matrix(.95122 0 0 .95122 7.332 4.4493)" points="281.7 148.74 248.28 148.74 248.28 141.8 299.85 141.8 299.85 128.7 232.9 128.7 232.9 148.73 222.68 148.73 232.9 161.15 232.9 182.02 299.97 182.02 299.96 168.92 248.28 168.92 248.28 161.15 269.37 161.15"/>
  <path d="m132.14 126.87h-17.598l-19.055 19.055h-22.167l11.084 11.084-20.56 20.56 17.573 0.0252 19.856-19.856 18.492 9.5e-4h7.4247l18.492-9.5e-4 10.854 11.317 9.1322-8.8273-33.255-33.358zm-8.6635 8.6635 10.392 10.391h-20.783z"/>
 </g>
 <g fill="#e43d30" fill-rule="evenodd">
  <path d="m58.355 108.34-0.79008-1.2944-0.87782 1.3165-2.1505 3.2915h5.9471zm-8.032 9.8536h-8.9098l11.719-17.139h9.524l10.951 17.139h-9.0857l-1.3165-2.041h-11.521z"/>
  <polygon transform="matrix(.95122 0 0 .95122 7.332 4.4493)" points="79.898 119.57 79.898 107 70.9 107 70.9 101.55 97.87 101.55 97.87 107 88.872 107 88.872 119.57"/>
  <polygon transform="matrix(.95122 0 0 .95122 7.332 4.4493)" points="125.1 113.39 125.1 119.57 104.31 119.57 104.31 101.55 113.08 101.55 113.08 113.39"/>
  <path d="m148.25 108.34-0.78965-1.2944-0.87826 1.3165-2.1504 3.2915h5.9471zm-8.032 9.8536h-8.9098l11.719-17.139h9.524l10.951 17.139h-9.0853l-1.3169-2.041h-11.521z"/>
  <polygon transform="matrix(.95122 0 0 .95122 7.332 4.4493)" points="188.27 119.57 178.63 110.94 178.63 119.57 170.26 119.57 170.26 101.55 179.23 101.55 188.37 109.67 188.37 101.55 196.74 101.55 196.74 119.57"/>
  <polygon transform="matrix(.95122 0 0 .95122 7.332 4.4493)" points="212.06 119.57 212.06 107 203.07 107 203.07 101.55 230.04 101.55 230.04 107 221.04 107 221.04 119.57"/>
  <path d="m243.33 108.34-0.78964-1.2944-0.87826 1.3165-2.1505 3.2915h5.9471zm-8.032 9.8536h-8.9094l11.719-17.139h9.524l10.951 17.139h-9.0857l-1.3165-2.041h-11.521z"/>
  <polygon transform="matrix(.95122 0 0 .95122 7.332 4.4493)" points="153.88 1.8265 231.71 1.8265 216.15 17.394 169.44 17.394 169.44 25.178 208.36 25.178 192.79 40.745 169.44 40.745 169.44 64.097 153.88 79.664"/>
  <path d="m133.06 31.428-12.004-12.004h12.004zm-60.804-25.241 14.809 14.808h14.621l29.804 29.805v14.621l14.808 14.808v-74.041z"/>
 </g>
</svg>
