<?xml version="1.0" encoding="UTF-8"?>
<svg width="624.07" height="128.42" version="1.1" viewBox="0 0 624.07 128.42" xmlns="http://www.w3.org/2000/svg" xmlns:cc="http://creativecommons.org/ns#" xmlns:dc="http://purl.org/dc/elements/1.1/" xmlns:rdf="http://www.w3.org/1999/02/22-rdf-syntax-ns#">
 <!-- Generator: Sketch 58 (84663) - https://sketch.com -->
 <title>Logo / CDL_Logo</title>
 <desc>Created with Sketch.</desc>
 <g fill-rule="evenodd" stroke-width=".9781">
  <path d="m524.7 109.26c-2.6771-3.0499-2.3594-6.0258-2.3594-7.9672l6e-3 -19.759h-7.578v20.243c0 2.6937-0.24589 8.0296 4.5042 12.644 2.8244 2.743 7.3633 3.956 12.122 3.956l14.002-3e-3v-6.9015l-13.005-6e-3c-2.7605 0-5.7488 6e-3 -7.6904-2.2069m28.144 2.1305v-29.938h-7.6042v29.939zm0.0895 6.9874h7.586v-6.9261h-7.586v0.021zm-65.856-14.513h12.807v7.5819h-16.87c-6.7199 0-6.9397-5.5572-6.9397-6.3769v-9.7214c0-5.938 5.3876-6.8913 6.9296-6.8913h16.601v-6.9233h-16.714c-0.36194 0.0068-3.6229 0.11463-6.9615 1.7782-4.6652 2.3245-7.2357 6.5996-7.2357 12.037v10.488c0 5.9395 3.8883 12.537 14.319 12.537h24.076v-21.418h-20.013zm88.702-15.403h28.29v-6.9261h-35.875v36.843h35.875v-6.9261h-28.29v-7.7728h28.29v-6.9225h-28.29zm-131.54-6.9261h-8.2765l-20.286 36.84h8.7l3.4111-6.5024h24.388l3.4706 6.5024h8.8951l-16.525-29.981v-6.8586zm-4.1088 6.4017 8.621 17.012h-17.319zm-60.216 0.52452h28.289v-6.9261h-35.875v36.84h35.875v-6.9254h-28.289v-7.7706h28.289v-6.9225h-28.289zm-15.283 22.99h-25.491v-29.916h-7.203v36.843h32.694z"/>
  <path d="m20.004 118.42h301.35v-47.598h-63.45l-147.56 22.962 232.15-49.407v-26.445l-63.451-0.092861-129.85 44.596 82.263-36.57v-15.866h-42.301l-52.875 42.311v14.561l-42.301 14.528v14.931l-73.984 11.513z"/>
  <path d="m571.15 49.781v13.135h-9.8622v-13.135l-5.2875-16.261h-6.2058v29.396h-10.653v-29.396h-6.2992v-7.6923h29.093l4.2837 13.32 4.1958-13.32h8.4071zm-40.238 0.74144c0 2.7989-0.10083 4.7664-0.30463 5.8996-0.20527 1.1332-0.81017 2.2969-1.8161 3.4917-1.0045 1.1934-2.3311 2.0995-3.9747 2.7162-1.6435 0.61594-3.5823 0.92427-5.8148 0.92427-2.4711 0-4.6521-0.36637-6.5445-1.0963-1.8909-0.72983-3.3052-1.6802-4.2423-2.8525-0.93709-1.1717-1.4912-2.4079-1.6624-3.7087-0.17044-1.3008-0.25385-4.0365-0.25385-8.2044v-21.864h10.264v27.706c0 1.6135 0.0972 2.6451 0.29448 3.0934 0.19511 0.44979 1.0879 0.67251 1.6834 0.67251 0.68106 0 1.698-0.24666 1.8945-0.74144 0.19583-0.49405 0.29302-1.6613 0.29302-3.5026v-27.228h10.183zm-26.544 1.2776c0 3.3169-0.17335 5.534-0.52294 6.6533-0.34888 1.118-0.95813 1.9929-1.8271 2.624-0.87038 0.63043-1.9431 1.0723-3.2204 1.324-1.2809 0.25029-3.2051 0.3758-5.7785 0.51436h-13.572v-37.088h8.0509c5.1983 0 8.7131 0.21329 10.545 0.63915 1.8307 0.42586 3.2232 1.1267 4.1784 2.0995 0.95449 0.97432 1.55 2.0582 1.79 3.2523 0.23935 1.1942 0.35612 3.5418 0.35612 7.0408zm-27.15-15.495h-2.0809v2.9026h1.8546v1.9001h-1.8546v5.8727h-3.0028v-12.813h5.0837zm-6.0998 5.9837c0 1.1296-0.0268 2.0262-0.0798 2.4964-0.0544 0.46938-0.22267 0.89814-0.50698 1.2863-0.28288 0.38885-0.66656 0.58981-1.1489 0.7973-0.48233 0.20748-1.0437 0.31268-1.6849 0.31268-0.60998 0-1.1561-0.09939-1.6414-0.29454-0.48378-0.19661-0.87399-0.39321-1.1692-0.78642-0.2952-0.39394-0.47-0.82124-0.52658-1.2848-0.0573-0.46213-0.0849-1.3697-0.0849-2.5268v-3.2669c0-1.1281 0.0276-2.2737 0.0805-2.7438 0.0537-0.46866 0.11968-0.69356 0.40255-1.0817 0.28286-0.38885 0.66946-0.64422 1.1525-0.85243 0.48233-0.20821 1.1446-0.31196 1.7864-0.31196 0.6078 0 1.2548 0.09794 1.74 0.29454 0.48451 0.19661 0.86892 0.45995 1.1641 0.85316 0.29374 0.39321 0.37571 0.60432 0.43301 1.0672 0.0559 0.46286 0.0834 0.94094 0.0834 2.0967zm-2.5668 20.627h-17.181v-37.088h10.685v29.556h6.4958zm-19.144 0h-17.181v-37.088h10.684v29.556h6.4973zm-28.183 0-1.0589-7.5602h-2.1374l-1.3294-7.0444h2.3631c-0.58531-4.186-1.0125-8.3234-1.7154-14.6-0.83555 6.435-1.5398 10.51-1.872 13.652l-0.94362 7.9926h-9.8e-4l-0.89575 7.5602-9.8035-0.0098 5.4507-37.079h15.441l6.1107 37.088zm-22.147-1.1811c-2.0845 1.2159-4.6564 1.829-7.7151 1.8363-3.1805 0.0088-5.801-0.49706-7.8652-1.517-2.0642-1.0193-3.4343-2.4355-4.1096-4.2455-0.6738-1.8122-1.0147-4.5379-1.0248-8.1783l-0.0253-10.507c-7e-3 -2.6777 0.0921-4.6859 0.29447-6.0251 0.20382-1.3407 0.81452-2.6306 1.8336-3.8726 1.0198-1.242 2.4349-2.2215 4.2467-2.9382 1.811-0.71605 3.8942-1.0766 6.2478-1.0832 3.1971-0.0093 5.8358 0.53407 7.9181 1.6288 2.0816 1.0955 3.4502 2.463 4.1081 4.1033 0.65712 1.6411 0.98935 4.1947 0.99727 7.6639l0.01 2.8947-10.439 0.02902-0.0152-5.8234c-6e-3 -1.8782-0.12404-3.0492-0.35686-3.5142-0.23282-0.46503-1.1583-0.69719-1.9482-0.69356-0.89358 7.26e-4 -1.872 0.28584-2.1121 0.85316-0.24008 0.56659-0.35613 1.7912-0.3525 3.6731l0.0421 16.908c4e-3 1.8065 0.12693 2.9832 0.3699 3.5338 0.24008 0.54919 1.1968 0.82415 2.0381 0.82197 0.80727-2e-3 1.9134-0.28003 2.1614-0.83284 0.24732-0.55209 0.36845-1.8492 0.36337-3.89l-0.0109-5.3039 10.275-0.02902 4e-3 2.0829c9e-3 3.8443-0.29034 6.5743-0.89597 8.1842-0.60636 1.6113-1.9511 3.0245-4.0378 4.2405zm-45.989 9.091h250.98v-52.888h-250.98zm140.27-38.344c-0.42576-0.21982-2.4646-0.33082-3.6403-0.33082v24.307c1.55 0 3.7426-0.27714 4.1002-0.83358 0.35902-0.55499 0.53673-2.0655 0.53673-4.5299v-14.356c0-1.6737-0.0603-2.7467-0.17771-3.2182-0.12112-0.47156-0.39311-0.81761-0.81886-1.0382m-25.651 3.2713c-0.15449 0-0.27272 0.05949-0.35467 0.17702-0.082 0.11825-0.12331 0.64567-0.12331 1.2239v6.8312c0 0.65148 0.0268 1.1114 0.0805 1.263 0.0544 0.15307 0.17987 0.22998 0.37643 0.22998 0.20236 0 0.33001-0.08778 0.38586-0.26408 0.0565-0.17629 0.0849-0.59417 0.0849-1.2558v-6.8043c0-0.52307-0.0283-1.0367-0.0877-1.1818-0.0588-0.14582-0.17915-0.21909-0.36193-0.21909"/>
  <path d="m616.64 22.628v1.9725h-1.1808v-6.6628h1.5964l0.63175 2.5029 0.71805-2.5029h1.5964v6.6628h-1.1794v-1.9725l0.0544-3.1159-0.87399 2.8918h-0.63538l-0.78259-2.7684zm-5.2343 1.9728v-5.6152h-2.0265v-1.0475h5.3709v1.0475h-2.0541v5.6152z"/>
 </g>
</svg>
